<?xml version="1.0" encoding="UTF-8" standalone="no"?>
<svg width="462px" height="204px" viewBox="0 0 462 204" version="1.1" xmlns="http://www.w3.org/2000/svg" xmlns:xlink="http://www.w3.org/1999/xlink" xmlns:sketch="http://www.bohemiancoding.com/sketch/ns">
    <title>Slice 1</title>
    <description>Created with Sketch (http://www.bohemiancoding.com/sketch)</description>
    <defs>
        <path d="M13.8383728,0 C6.19565053,0 0,6.19673121 0,13.8445415 L0,13.8445415 C0,21.4906707 6.20010322,27.6890831 13.8383728,27.6890831 L61.7297501,27.6890831 C69.3724723,27.6890831 75.5681229,21.4923519 75.5681229,13.8445415 L75.5681229,13.8445415 C75.5681229,6.19841238 69.3680196,0 61.7297501,0 L13.8383728,0 Z M13.8383728,0" id="path-1"></path>
        <path d="M61.7235813,0 C54.0774521,0 47.8790398,6.19673121 47.8790398,13.8445415 L47.8790398,13.8445415 C47.8790398,21.4906707 54.075771,27.6890831 61.7235813,27.6890831 L61.7235813,27.6890831 C69.3697105,27.6890831 75.5681229,21.4923519 75.5681229,13.8445415 L75.5681229,13.8445415 C75.5681229,6.19841238 69.3713917,0 61.7235813,0 L61.7235813,0 Z M61.7235813,0" id="path-2"></path>
        <path d="M50.1864643,0 C42.5403351,0 36.3419228,6.19673121 36.3419228,13.8445415 L36.3419228,13.8445415 C36.3419228,21.4906707 42.538654,27.6890831 50.1864643,27.6890831 L50.1864643,27.6890831 C57.8325935,27.6890831 64.0310059,21.4923519 64.0310059,13.8445415 L64.0310059,13.8445415 C64.0310059,6.19841238 57.8342746,0 50.1864643,0 L50.1864643,0 Z M50.1864643,0" id="path-3"></path>
        <path d="M38.0724888,0 C30.4263596,0 24.2279472,6.19673121 24.2279472,13.8445415 L24.2279472,13.8445415 C24.2279472,21.4906707 30.4246784,27.6890831 38.0724888,27.6890831 L38.0724888,27.6890831 C45.718618,27.6890831 51.9170303,21.4923519 51.9170303,13.8445415 L51.9170303,13.8445415 C51.9170303,6.19841238 45.7202991,0 38.0724888,0 L38.0724888,0 Z M38.0724888,0" id="path-4"></path>
        <path d="M25.9585152,0 C18.312386,0 12.1139736,6.19673121 12.1139736,13.8445415 L12.1139736,13.8445415 C12.1139736,21.4906707 18.3107048,27.6890831 25.9585152,27.6890831 L25.9585152,27.6890831 C33.6046443,27.6890831 39.8030567,21.4923519 39.8030567,13.8445415 L39.8030567,13.8445415 C39.8030567,6.19841238 33.6063255,0 25.9585152,0 L25.9585152,0 Z M25.9585152,0" id="path-5"></path>
        <path d="M17.8825326,0 C10.2364034,0 4.03799105,6.19673121 4.03799105,13.8445415 L4.03799105,13.8445415 C4.03799105,21.4906707 10.2347223,27.6890831 17.8825326,27.6890831 L17.8825326,27.6890831 C25.5286618,27.6890831 31.7270741,21.4923519 31.7270741,13.8445415 L31.7270741,13.8445415 C31.7270741,6.19841238 25.5303429,0 17.8825326,0 L17.8825326,0 Z M17.8825326,0" id="path-6"></path>
        <path d="M29.2273655,36.1496353 C23.2803761,36.1496353 18.4593887,40.9693151 18.4593887,46.9176121 L18.4593887,46.9176121 C18.4593887,52.8646014 23.2790686,57.6855888 29.2273655,57.6855888 L29.2273655,57.6855888 C35.1743548,57.6855888 39.9953423,52.865909 39.9953423,46.9176121 L39.9953423,46.9176121 C39.9953423,40.9706227 35.1756624,36.1496353 29.2273655,36.1496353 L29.2273655,36.1496353 Z M29.2273655,36.1496353" id="path-7"></path>
        <path d="M3.84570599,42.3027668 L3.84570599,51.5324612 C3.84570599,55.3781672 7.69141197,59.2238731 11.537118,59.2238731 C15.3828239,59.2238731 19.2285299,55.3781672 19.2285299,51.5324612 L19.2285299,42.3027668 C19.2285299,38.4570608 15.3828239,34.6113548 11.537118,34.6113548 C7.69141197,34.6113548 3.84570599,38.4570608 3.84570599,42.3027668 Z M3.84570599,42.3027668" id="path-8"></path>
        <linearGradient x1="85.7195318%" y1="10.5826989%" x2="18.2911158%" y2="90.0380433%" id="linearGradient-9">
            <stop stop-color="#FFFFFF" offset="0%"></stop>
            <stop stop-color="#6A696A" offset="40.234375%"></stop>
            <stop stop-color="#000000" offset="100%"></stop>
        </linearGradient>
        <path d="M5.38011871,32.3039284 C2.4087612,32.3039284 0,34.7204725 0,37.6879168 L0,37.6879168 C0,40.6614114 2.41855799,43.0719051 5.38011871,43.0719051 L6.15699924,43.0719051 C9.12835676,43.0719051 11.537118,40.655361 11.537118,37.6879168 L11.537118,37.6879168 C11.537118,34.7144221 9.11855997,32.3039284 6.15699924,32.3039284 L5.38011871,32.3039284 Z M5.38011871,32.3039284" id="path-10"></path>
        <path d="M6.14925991,49.9941788 C3.17790239,49.9941788 0.769141197,52.4107229 0.769141197,55.3781672 L0.769141197,55.3781672 C0.769141197,58.3516618 3.18769918,60.7621555 6.14925991,60.7621555 L6.92614044,60.7621555 C9.89749796,60.7621555 12.3062592,58.3456114 12.3062592,55.3781672 L12.3062592,55.3781672 C12.3062592,52.4046725 9.88770117,49.9941788 6.92614044,49.9941788 L6.14925991,49.9941788 Z M6.14925991,49.9941788" id="path-11"></path>
    </defs>
    <g id="Page 1" stroke="none" stroke-width="1" fill="none" fill-rule="evenodd">
        <g id="bee" transform="translate(392.000000, 130.500000) rotate(-311.000000) translate(-392.000000, -130.500000) translate(339.000000, 82.000000)">
            <g id="Group" transform="translate(30.000000, 33.000000)">
                <use id="Rectangle 2" stroke="#EDDD63" stroke-width="4" xlink:href="#path-1"></use>
                <use id="Rectangle 2-1" fill="#000000" xlink:href="#path-1"></use>
                <use id="Rectangle 2-2" xlink:href="#path-1"></use>
                <use id="Rectangle 2" stroke="#EDDD63" stroke-width="4" xlink:href="#path-2"></use>
                <use id="Rectangle 2-1" fill="#000000" xlink:href="#path-2"></use>
                <use id="Rectangle 2-2" xlink:href="#path-2"></use>
                <use id="Rectangle 2" stroke="#EDDD63" stroke-width="4" xlink:href="#path-3"></use>
                <use id="Rectangle 2-1" fill="#000000" xlink:href="#path-3"></use>
                <use id="Rectangle 2-2" xlink:href="#path-3"></use>
                <use id="Rectangle 2" stroke="#EDDD63" stroke-width="4" xlink:href="#path-4"></use>
                <use id="Rectangle 2-1" fill="#000000" xlink:href="#path-4"></use>
                <use id="Rectangle 2-2" xlink:href="#path-4"></use>
                <use id="Rectangle 2" stroke="#EDDD63" stroke-width="4" xlink:href="#path-5"></use>
                <use id="Rectangle 2-1" fill="#000000" xlink:href="#path-5"></use>
                <use id="Rectangle 2-2" xlink:href="#path-5"></use>
                <use id="Rectangle 2" stroke="#000000" stroke-width="4" xlink:href="#path-6"></use>
                <use id="Rectangle 2-1" fill="#000000" xlink:href="#path-6"></use>
                <use id="Rectangle 2-2" xlink:href="#path-6"></use>
            </g>
            <use id="Rectangle 2" stroke="#EDDD63" stroke-width="5" xlink:href="#path-7"></use>
            <use id="Rectangle 2-1" fill="#453920" xlink:href="#path-7"></use>
            <use id="Rectangle 2-2" xlink:href="#path-7"></use>
            <use id="Rectangle 2" stroke="#000000" stroke-width="5" xlink:href="#path-8"></use>
            <use id="Rectangle 2-1" fill="#453920" xlink:href="#path-8"></use>
            <use id="Rectangle 2-2" xlink:href="#path-8"></use>
            <use id="Rectangle 2" stroke="#EDDD63" stroke-width="3" xlink:href="#path-10"></use>
            <use id="Rectangle 2-1" fill="url(#linearGradient-9)" xlink:href="#path-10"></use>
            <use id="Rectangle 2-2" xlink:href="#path-10"></use>
            <use id="Rectangle 2" stroke="#EDDD63" stroke-width="3" xlink:href="#path-11"></use>
            <use id="Rectangle 2-1" fill="url(#linearGradient-9)" xlink:href="#path-11"></use>
            <use id="Rectangle 2-2" xlink:href="#path-11"></use>
            <path d="M29.6677853,32.1512435 C22.5261771,38.6659116 20.7668114,41.9950969 20.7668114,41.9950969 L43.8593538,41.9950969 L86.424645,28.6777635 C86.424645,28.6777635 101.358609,5.17642013 98.1537495,1.20653408 C94.9492043,-2.76334774 47.7964091,20.3433996 47.7964091,20.3433996 C47.7964091,20.3433996 36.8093073,25.6365754 29.6677853,32.1512435 Z M29.6677853,32.1512435" id="Path 3" stroke="#9B9B9B" stroke-width="3" fill-opacity="0.419117659" fill="#FFFFFF"></path>
            <path d="M29.6677853,86.2065484 C22.5261771,93.0765619 20.7668114,96.587339 20.7668114,96.587339 L43.8593538,96.587339 L86.424645,82.5436059 C86.424645,82.5436059 101.358609,57.7603716 98.1537495,53.5739464 C94.9492043,49.3875257 47.7964091,73.7546406 47.7964091,73.7546406 C47.7964091,73.7546406 36.8093073,79.3365349 29.6677853,86.2065484 Z M29.6677853,86.2065484" id="Path 3" stroke="#9B9B9B" stroke-width="3" fill-opacity="0.419117659" fill="#FFFFFF" transform="translate(59.993011, 74.606695) scale(1, -1) translate(-59.993011, -74.606695) "></path>
        </g>
        <path d="M35,10.251551 C35,10.251551 77.3155968,7.45686029 113.586424,20.4977067 C141.108775,30.3928214 159.748994,46.1129926 176.784957,56.3591563 C193.821288,66.6052583 197.165665,71.7283401 218.754812,71.7283401 C237.727885,71.7283401 251.288759,63.5397672 261.416518,56.3591563 C277.397215,45.0290429 296.644598,30.2328832 325.165145,20.4977067 C364.732851,6.99121255 403.201843,10.7173203 403.201843,10.7173203" id="Path 6" stroke="#453920" stroke-width="10"></path>
        <path d="M233,10.5868554 C233,10.5868554 252.53725,4.0669875 269.28361,34.490603 C281.99077,57.5753902 290.59702,94.2497309 298.46258,118.153497 C306.32831,142.05712 307.87242,154.009003 317.8402,154.009003 C326.60013,154.009003 332.86123,134.905488 337.53725,118.153497 C344.91559,91.7209328 353.80217,57.2022628 366.9702,34.490603 C385.23874,2.98065559 403,11.673471 403,11.673471" id="Path 6" stroke="#EDDD63" stroke-width="10"></path>
        <path d="M5,9.999995 L432.000192,9.999995" id="Path 7" stroke="#000000" stroke-width="10"></path>
    </g>
</svg>